<svg xmlns="http://www.w3.org/2000/svg" width="29" height="14" viewBox="0 0 29 14">
    <path fill="#000" fill-rule="evenodd" stroke="#FFF" stroke-width=".6" d="M1.824 6.195h23.378l-3.95-3.805a.748.748 0 0 1-.257-.567c0-.22.076-.411.229-.576A.732.732 0 0 1 21.782 1c.22 0 .414.073.585.22l5.378 5.195c.17.158.256.35.256.576a.758.758 0 0 1-.256.576l-5.414 5.213a.785.785 0 0 1-.55.22.767.767 0 0 1-.585-.256.743.743 0 0 1-.228-.567.808.808 0 0 1 .247-.567l3.95-3.805H1.807a.785.785 0 0 1-.549-.22.76.76 0 0 1-.256-.53.778.778 0 0 1 .229-.604.796.796 0 0 1 .594-.256z" opacity=".6"/>
</svg>
