<svg xmlns="http://www.w3.org/2000/svg" width="11" height="11" viewBox="0 0 11 11">
    <path fill="#FFF" fill-rule="evenodd" d="M7.333 5.5A1.86 1.86 0 0 0 5.5 3.667V2.435A3.047 3.047 0 0 1 8.155 3.96c.273.47.41.983.41 1.54H7.333zm2.435 0c0-.782-.19-1.5-.572-2.156a4.305 4.305 0 0 0-1.54-1.54A4.209 4.209 0 0 0 5.5 1.232V0c.997 0 1.921.25 2.772.748a5.491 5.491 0 0 1 1.98 1.98c.499.85.748 1.775.748 2.772H9.768zm.63 2.141a.58.58 0 0 1 .426.176.58.58 0 0 1 .176.426v2.156a.58.58 0 0 1-.176.425.58.58 0 0 1-.425.176A10.357 10.357 0 0 1 3.05 7.95a10.357 10.357 0 0 1-2.23-3.3A10.261 10.261 0 0 1 0 .6.58.58 0 0 1 .176.176.58.58 0 0 1 .601 0h2.156a.58.58 0 0 1 .426.176.58.58 0 0 1 .176.425c0 .802.112 1.526.337 2.171a.78.78 0 0 1 .015.337.489.489 0 0 1-.162.294L2.2 4.752A9.41 9.41 0 0 0 6.248 8.8l1.35-1.35a.489.489 0 0 1 .293-.16.78.78 0 0 1 .337.014c.645.225 1.369.337 2.17.337z" opacity=".65"/>
</svg>
