<svg xmlns="http://www.w3.org/2000/svg" width="9" height="13" viewBox="0 0 9 13">
    <path fill="#FFF" fill-rule="evenodd" d="M7.21 0c.255 0 .47.089.648.267a.881.881 0 0 1 .267.647v11.172c0 .254-.089.47-.267.647a.881.881 0 0 1-.647.267H.914a.881.881 0 0 1-.647-.267.881.881 0 0 1-.267-.647V.914C0 .66.089.444.267.267A.881.881 0 0 1 .914 0h6.297zM4.444 12.188a.42.42 0 0 0 .311-.121.39.39 0 0 0 .121-.286.39.39 0 0 0-.12-.285.42.42 0 0 0-.312-.121h-.761a.42.42 0 0 0-.311.12.39.39 0 0 0-.121.286c0 .11.04.205.12.286.081.08.185.12.312.12h.761zm2.768-1.638V1.612H.914v8.938h6.297z" opacity=".65"/>
</svg>
