<svg xmlns="http://www.w3.org/2000/svg" width="12" height="12" viewBox="0 0 12 12">
    <path fill="#FFF" fill-rule="evenodd" d="M6.317 2.986v3.158l2.697 1.601-.447.765L5.41 6.59V2.986h.908zM6 10.817c.865 0 1.673-.22 2.423-.663.73-.423 1.308-1 1.73-1.73.443-.75.664-1.559.664-2.424s-.22-1.673-.663-2.423c-.423-.73-1-1.308-1.73-1.73A4.688 4.688 0 0 0 6 1.182c-.865 0-1.673.22-2.423.663-.73.423-1.308 1-1.73 1.73A4.688 4.688 0 0 0 1.182 6c0 .865.22 1.673.663 2.423.423.73 1 1.308 1.73 1.73.75.443 1.559.664 2.424.664zM6 0a5.9 5.9 0 0 1 3.043.822 5.687 5.687 0 0 1 2.135 2.135A5.9 5.9 0 0 1 12 6a5.9 5.9 0 0 1-.822 3.043 5.687 5.687 0 0 1-2.135 2.135A5.9 5.9 0 0 1 6 12a5.9 5.9 0 0 1-3.043-.822 5.794 5.794 0 0 1-2.135-2.15A5.875 5.875 0 0 1 0 6c0-1.087.274-2.096.822-3.029A5.905 5.905 0 0 1 2.972.822 5.875 5.875 0 0 1 6 0z" opacity=".65"/>
</svg>
